<mxfile host="Electron" modified="2024-09-05T14:51:33.384Z" agent="Mozilla/5.0 (Macintosh; Intel Mac OS X 10_15_7) AppleWebKit/537.36 (KHTML, like Gecko) draw.io/24.4.8 Chrome/124.0.6367.207 Electron/30.0.6 Safari/537.36" etag="RNdAvrk49Yslx5CfCgQD" version="24.4.8" type="device" pages="3">
  <diagram name="P치gina-1" id="eRRnzgGxMrfi-mvrWCXI">
    <mxGraphModel dx="1026" dy="1842" grid="1" gridSize="10" guides="1" tooltips="1" connect="1" arrows="1" fold="1" page="1" pageScale="1" pageWidth="827" pageHeight="1169" math="0" shadow="0">
      <root>
        <mxCell id="0" />
        <mxCell id="1" parent="0" />
        <mxCell id="tkarYkr_DDq9ymQ0Hqwi-2" value="&lt;h1 style=&quot;text-align: justify; margin-top: 0px;&quot;&gt;Problemas&lt;/h1&gt;&lt;div style=&quot;text-align: justify;&quot;&gt;1.-&amp;nbsp; Una escuela necesita gestionar los alumnos y los cursos en los que est치n inscritos. Cada alumno puede inscribirse en varios cursos y cada curso puede tener varios alumnos.&amp;nbsp;&lt;/div&gt;&lt;div style=&quot;text-align: justify;&quot;&gt;&lt;br&gt;&lt;/div&gt;&lt;div style=&quot;text-align: justify;&quot;&gt;2.- Una tienda necesita gestionar las ventas, los clientes y los productos. Cada venta tiene un cliente asociaado y puede&amp;nbsp;&lt;span style=&quot;background-color: initial;&quot;&gt;incluir varios productos.&lt;/span&gt;&lt;/div&gt;&lt;div style=&quot;text-align: justify;&quot;&gt;&lt;br&gt;&lt;/div&gt;&lt;div style=&quot;text-align: justify;&quot;&gt;3.- Una empresa necesita gestionar los proyectos y los empleados que trabajan en ellos. Cada empleado puede trabajar en varios proyectos y cada proyecto puede tener varios empleados.&lt;/div&gt;&lt;div style=&quot;text-align: justify;&quot;&gt;&lt;br&gt;&lt;/div&gt;&lt;div style=&quot;text-align: justify;&quot;&gt;4.- Un hospital necesita gestionar a sus pacientes, medicos y las consultas que se realizan. Cada paciente puede tener multiples consultas y cada consulta es atendida por un medico.&lt;/div&gt;&lt;div style=&quot;text-align: justify;&quot;&gt;&lt;br&gt;&lt;/div&gt;&lt;div style=&quot;text-align: justify;&quot;&gt;&lt;br&gt;&lt;/div&gt;" style="text;html=1;whiteSpace=wrap;overflow=hidden;rounded=0;" vertex="1" parent="1">
          <mxGeometry x="40" y="-1120" width="760" height="230" as="geometry" />
        </mxCell>
      </root>
    </mxGraphModel>
  </diagram>
  <diagram id="Rigf9NXMY8kk-w9X650R" name="P치gina-2">
    <mxGraphModel dx="1026" dy="673" grid="1" gridSize="10" guides="1" tooltips="1" connect="1" arrows="1" fold="1" page="1" pageScale="1" pageWidth="827" pageHeight="1169" math="0" shadow="0">
      <root>
        <mxCell id="0" />
        <mxCell id="1" parent="0" />
        <mxCell id="dYlyZbWruo-MkoCOTTvO-1" value="&lt;h1 style=&quot;margin-top: 0px;&quot;&gt;Problema 1:&lt;/h1&gt;&lt;div&gt;&lt;div style=&quot;text-align: justify;&quot;&gt;Una escuela necesita gestionar los alumnos y los cursos en los que est치n inscritos. Cada alumno puede inscribirse en varios cursos y cada curso puede tener varios alumnos.&amp;nbsp;&lt;/div&gt;&lt;div style=&quot;text-align: justify;&quot;&gt;&lt;br&gt;&lt;/div&gt;&lt;/div&gt;" style="text;html=1;whiteSpace=wrap;overflow=hidden;rounded=0;" vertex="1" parent="1">
          <mxGeometry x="54" y="120" width="720" height="110" as="geometry" />
        </mxCell>
        <mxCell id="qjpJiVCOyiUKAkOlLTd5-1" value="Escuela" style="whiteSpace=wrap;html=1;align=center;" vertex="1" parent="1">
          <mxGeometry x="364" y="390" width="100" height="40" as="geometry" />
        </mxCell>
        <mxCell id="qjpJiVCOyiUKAkOlLTd5-2" value="Alumno" style="whiteSpace=wrap;html=1;align=center;" vertex="1" parent="1">
          <mxGeometry x="550" y="510" width="100" height="40" as="geometry" />
        </mxCell>
        <mxCell id="qjpJiVCOyiUKAkOlLTd5-3" value="Curso" style="whiteSpace=wrap;html=1;align=center;" vertex="1" parent="1">
          <mxGeometry x="200" y="510" width="100" height="40" as="geometry" />
        </mxCell>
        <mxCell id="qjpJiVCOyiUKAkOlLTd5-4" value="gestiona" style="shape=rhombus;perimeter=rhombusPerimeter;whiteSpace=wrap;html=1;align=center;" vertex="1" parent="1">
          <mxGeometry x="190" y="380" width="120" height="60" as="geometry" />
        </mxCell>
        <mxCell id="qjpJiVCOyiUKAkOlLTd5-5" value="gestiona" style="shape=rhombus;perimeter=rhombusPerimeter;whiteSpace=wrap;html=1;align=center;" vertex="1" parent="1">
          <mxGeometry x="540" y="380" width="120" height="60" as="geometry" />
        </mxCell>
        <mxCell id="qjpJiVCOyiUKAkOlLTd5-7" value="" style="endArrow=none;html=1;rounded=0;exitX=0.5;exitY=1;exitDx=0;exitDy=0;entryX=0.5;entryY=0;entryDx=0;entryDy=0;" edge="1" parent="1" source="qjpJiVCOyiUKAkOlLTd5-4" target="qjpJiVCOyiUKAkOlLTd5-3">
          <mxGeometry relative="1" as="geometry">
            <mxPoint x="30" y="490" as="sourcePoint" />
            <mxPoint x="190" y="490" as="targetPoint" />
          </mxGeometry>
        </mxCell>
        <mxCell id="qjpJiVCOyiUKAkOlLTd5-8" value="" style="endArrow=none;html=1;rounded=0;exitX=0.5;exitY=1;exitDx=0;exitDy=0;entryX=0.5;entryY=0;entryDx=0;entryDy=0;" edge="1" parent="1" source="qjpJiVCOyiUKAkOlLTd5-5" target="qjpJiVCOyiUKAkOlLTd5-2">
          <mxGeometry relative="1" as="geometry">
            <mxPoint x="539" y="440" as="sourcePoint" />
            <mxPoint x="539" y="510" as="targetPoint" />
          </mxGeometry>
        </mxCell>
        <mxCell id="qjpJiVCOyiUKAkOlLTd5-9" value="" style="endArrow=none;html=1;rounded=0;exitX=1;exitY=0.5;exitDx=0;exitDy=0;entryX=0;entryY=0.5;entryDx=0;entryDy=0;" edge="1" parent="1" source="qjpJiVCOyiUKAkOlLTd5-4" target="qjpJiVCOyiUKAkOlLTd5-1">
          <mxGeometry relative="1" as="geometry">
            <mxPoint x="330" y="450" as="sourcePoint" />
            <mxPoint x="330" y="520" as="targetPoint" />
          </mxGeometry>
        </mxCell>
        <mxCell id="qjpJiVCOyiUKAkOlLTd5-10" value="" style="endArrow=none;html=1;rounded=0;exitX=1;exitY=0.5;exitDx=0;exitDy=0;entryX=0;entryY=0.5;entryDx=0;entryDy=0;" edge="1" parent="1" source="qjpJiVCOyiUKAkOlLTd5-1" target="qjpJiVCOyiUKAkOlLTd5-5">
          <mxGeometry relative="1" as="geometry">
            <mxPoint x="320" y="420" as="sourcePoint" />
            <mxPoint x="374" y="420" as="targetPoint" />
          </mxGeometry>
        </mxCell>
        <mxCell id="qjpJiVCOyiUKAkOlLTd5-11" value="(1, n)" style="text;html=1;align=center;verticalAlign=middle;resizable=0;points=[];autosize=1;strokeColor=none;fillColor=none;" vertex="1" parent="1">
          <mxGeometry x="600" y="480" width="50" height="30" as="geometry" />
        </mxCell>
        <mxCell id="qjpJiVCOyiUKAkOlLTd5-12" value="(1,1)" style="text;html=1;align=center;verticalAlign=middle;resizable=0;points=[];autosize=1;strokeColor=none;fillColor=none;" vertex="1" parent="1">
          <mxGeometry x="464" y="380" width="50" height="30" as="geometry" />
        </mxCell>
        <mxCell id="qjpJiVCOyiUKAkOlLTd5-13" value="incrito" style="shape=rhombus;perimeter=rhombusPerimeter;whiteSpace=wrap;html=1;align=center;" vertex="1" parent="1">
          <mxGeometry x="360" y="500" width="120" height="60" as="geometry" />
        </mxCell>
        <mxCell id="qjpJiVCOyiUKAkOlLTd5-14" value="" style="endArrow=none;html=1;rounded=0;exitX=1;exitY=0.5;exitDx=0;exitDy=0;entryX=0;entryY=0.5;entryDx=0;entryDy=0;" edge="1" parent="1" source="qjpJiVCOyiUKAkOlLTd5-3" target="qjpJiVCOyiUKAkOlLTd5-13">
          <mxGeometry relative="1" as="geometry">
            <mxPoint x="310" y="550" as="sourcePoint" />
            <mxPoint x="470" y="550" as="targetPoint" />
          </mxGeometry>
        </mxCell>
        <mxCell id="qjpJiVCOyiUKAkOlLTd5-15" value="" style="endArrow=none;html=1;rounded=0;exitX=1;exitY=0.5;exitDx=0;exitDy=0;entryX=0;entryY=0.5;entryDx=0;entryDy=0;" edge="1" parent="1" source="qjpJiVCOyiUKAkOlLTd5-13" target="qjpJiVCOyiUKAkOlLTd5-2">
          <mxGeometry relative="1" as="geometry">
            <mxPoint x="459" y="580" as="sourcePoint" />
            <mxPoint x="519" y="580" as="targetPoint" />
          </mxGeometry>
        </mxCell>
        <mxCell id="qjpJiVCOyiUKAkOlLTd5-16" value="(1,n)" style="text;html=1;align=center;verticalAlign=middle;resizable=0;points=[];autosize=1;strokeColor=none;fillColor=none;" vertex="1" parent="1">
          <mxGeometry x="250" y="480" width="50" height="30" as="geometry" />
        </mxCell>
        <mxCell id="qjpJiVCOyiUKAkOlLTd5-17" value="(1,n)" style="text;html=1;align=center;verticalAlign=middle;resizable=0;points=[];autosize=1;strokeColor=none;fillColor=none;" vertex="1" parent="1">
          <mxGeometry x="314" y="380" width="50" height="30" as="geometry" />
        </mxCell>
        <mxCell id="qjpJiVCOyiUKAkOlLTd5-18" value="(1,n)" style="text;html=1;align=center;verticalAlign=middle;resizable=0;points=[];autosize=1;strokeColor=none;fillColor=none;" vertex="1" parent="1">
          <mxGeometry x="500" y="500" width="50" height="30" as="geometry" />
        </mxCell>
        <mxCell id="qjpJiVCOyiUKAkOlLTd5-19" value="(1,n)" style="text;html=1;align=center;verticalAlign=middle;resizable=0;points=[];autosize=1;strokeColor=none;fillColor=none;" vertex="1" parent="1">
          <mxGeometry x="300" y="500" width="50" height="30" as="geometry" />
        </mxCell>
        <mxCell id="qjpJiVCOyiUKAkOlLTd5-21" value="N:M" style="text;html=1;align=center;verticalAlign=middle;resizable=0;points=[];autosize=1;strokeColor=none;fillColor=none;" vertex="1" parent="1">
          <mxGeometry x="395" y="470" width="50" height="30" as="geometry" />
        </mxCell>
        <mxCell id="qjpJiVCOyiUKAkOlLTd5-22" value="N:M" style="text;html=1;align=center;verticalAlign=middle;resizable=0;points=[];autosize=1;strokeColor=none;fillColor=none;" vertex="1" parent="1">
          <mxGeometry x="225" y="348" width="50" height="30" as="geometry" />
        </mxCell>
        <mxCell id="qjpJiVCOyiUKAkOlLTd5-23" value="1: N" style="text;html=1;align=center;verticalAlign=middle;resizable=0;points=[];autosize=1;strokeColor=none;fillColor=none;" vertex="1" parent="1">
          <mxGeometry x="575" y="340" width="50" height="30" as="geometry" />
        </mxCell>
        <mxCell id="qjpJiVCOyiUKAkOlLTd5-24" value="matricula" style="ellipse;whiteSpace=wrap;html=1;align=center;fontStyle=4;" vertex="1" parent="1">
          <mxGeometry x="680" y="500" width="90" height="30" as="geometry" />
        </mxCell>
        <mxCell id="qjpJiVCOyiUKAkOlLTd5-25" value="nombre_alumno" style="ellipse;whiteSpace=wrap;html=1;align=center;" vertex="1" parent="1">
          <mxGeometry x="514" y="590" width="116" height="30" as="geometry" />
        </mxCell>
        <mxCell id="qjpJiVCOyiUKAkOlLTd5-26" value="nombre" style="ellipse;whiteSpace=wrap;html=1;align=center;" vertex="1" parent="1">
          <mxGeometry x="445" y="640" width="80" height="20" as="geometry" />
        </mxCell>
        <mxCell id="qjpJiVCOyiUKAkOlLTd5-27" value="apellido1" style="ellipse;whiteSpace=wrap;html=1;align=center;" vertex="1" parent="1">
          <mxGeometry x="529" y="640" width="70" height="20" as="geometry" />
        </mxCell>
        <mxCell id="qjpJiVCOyiUKAkOlLTd5-28" value="apellido2" style="ellipse;whiteSpace=wrap;html=1;align=center;" vertex="1" parent="1">
          <mxGeometry x="600" y="640" width="70" height="20" as="geometry" />
        </mxCell>
        <mxCell id="qjpJiVCOyiUKAkOlLTd5-29" value="fecha_nacimiento" style="ellipse;whiteSpace=wrap;html=1;align=center;" vertex="1" parent="1">
          <mxGeometry x="620" y="440" width="110" height="30" as="geometry" />
        </mxCell>
        <mxCell id="qjpJiVCOyiUKAkOlLTd5-32" value="&lt;span style=&quot;border-bottom: 1px dotted&quot;&gt;CURP&lt;/span&gt;" style="ellipse;whiteSpace=wrap;html=1;align=center;" vertex="1" parent="1">
          <mxGeometry x="690" y="580" width="80" height="30" as="geometry" />
        </mxCell>
        <mxCell id="qjpJiVCOyiUKAkOlLTd5-33" value="CLAVE" style="ellipse;whiteSpace=wrap;html=1;align=center;fontStyle=4;" vertex="1" parent="1">
          <mxGeometry x="295" y="280" width="95" height="30" as="geometry" />
        </mxCell>
        <mxCell id="qjpJiVCOyiUKAkOlLTd5-34" value="nombre_escuela" style="ellipse;whiteSpace=wrap;html=1;align=center;" vertex="1" parent="1">
          <mxGeometry x="395" y="282" width="141" height="28" as="geometry" />
        </mxCell>
        <mxCell id="qjpJiVCOyiUKAkOlLTd5-35" value="id_curso" style="ellipse;whiteSpace=wrap;html=1;align=center;fontStyle=4;" vertex="1" parent="1">
          <mxGeometry x="60" y="510" width="100" height="30" as="geometry" />
        </mxCell>
        <mxCell id="qjpJiVCOyiUKAkOlLTd5-36" value="nombre_curso" style="ellipse;whiteSpace=wrap;html=1;align=center;" vertex="1" parent="1">
          <mxGeometry x="60" y="560" width="100" height="30" as="geometry" />
        </mxCell>
        <mxCell id="qjpJiVCOyiUKAkOlLTd5-37" value="duracion_curso" style="ellipse;whiteSpace=wrap;html=1;align=center;" vertex="1" parent="1">
          <mxGeometry x="60" y="610" width="100" height="30" as="geometry" />
        </mxCell>
        <mxCell id="qjpJiVCOyiUKAkOlLTd5-38" value="fecha_inscripcion" style="ellipse;whiteSpace=wrap;html=1;align=center;" vertex="1" parent="1">
          <mxGeometry x="310" y="590" width="120" height="30" as="geometry" />
        </mxCell>
        <mxCell id="qjpJiVCOyiUKAkOlLTd5-39" value="" style="endArrow=none;html=1;rounded=0;exitX=0.5;exitY=1;exitDx=0;exitDy=0;entryX=0.25;entryY=0;entryDx=0;entryDy=0;" edge="1" parent="1" source="qjpJiVCOyiUKAkOlLTd5-33" target="qjpJiVCOyiUKAkOlLTd5-1">
          <mxGeometry relative="1" as="geometry">
            <mxPoint x="380" y="420" as="sourcePoint" />
            <mxPoint x="540" y="420" as="targetPoint" />
          </mxGeometry>
        </mxCell>
        <mxCell id="qjpJiVCOyiUKAkOlLTd5-40" value="" style="endArrow=none;html=1;rounded=0;exitX=0.5;exitY=1;exitDx=0;exitDy=0;entryX=0.75;entryY=0;entryDx=0;entryDy=0;" edge="1" parent="1" source="qjpJiVCOyiUKAkOlLTd5-34" target="qjpJiVCOyiUKAkOlLTd5-1">
          <mxGeometry relative="1" as="geometry">
            <mxPoint x="353" y="320" as="sourcePoint" />
            <mxPoint x="399" y="400" as="targetPoint" />
          </mxGeometry>
        </mxCell>
        <mxCell id="qjpJiVCOyiUKAkOlLTd5-41" value="" style="endArrow=none;html=1;rounded=0;exitX=0;exitY=0.5;exitDx=0;exitDy=0;entryX=1;entryY=0.25;entryDx=0;entryDy=0;" edge="1" parent="1" source="qjpJiVCOyiUKAkOlLTd5-24" target="qjpJiVCOyiUKAkOlLTd5-2">
          <mxGeometry relative="1" as="geometry">
            <mxPoint x="476" y="320" as="sourcePoint" />
            <mxPoint x="449" y="400" as="targetPoint" />
          </mxGeometry>
        </mxCell>
        <mxCell id="qjpJiVCOyiUKAkOlLTd5-42" value="" style="endArrow=none;html=1;rounded=0;exitX=0;exitY=0;exitDx=0;exitDy=0;entryX=1;entryY=0.5;entryDx=0;entryDy=0;" edge="1" parent="1" target="qjpJiVCOyiUKAkOlLTd5-2">
          <mxGeometry relative="1" as="geometry">
            <mxPoint x="686.1091270347399" y="544.3933982822018" as="sourcePoint" />
            <mxPoint x="660" y="530" as="targetPoint" />
          </mxGeometry>
        </mxCell>
        <mxCell id="qjpJiVCOyiUKAkOlLTd5-43" value="" style="endArrow=none;html=1;rounded=0;exitX=0;exitY=0.5;exitDx=0;exitDy=0;entryX=1;entryY=1;entryDx=0;entryDy=0;" edge="1" parent="1" source="qjpJiVCOyiUKAkOlLTd5-32" target="qjpJiVCOyiUKAkOlLTd5-2">
          <mxGeometry relative="1" as="geometry">
            <mxPoint x="696" y="554" as="sourcePoint" />
            <mxPoint x="660" y="540" as="targetPoint" />
          </mxGeometry>
        </mxCell>
        <mxCell id="qjpJiVCOyiUKAkOlLTd5-44" value="" style="endArrow=none;html=1;rounded=0;exitX=0.5;exitY=0;exitDx=0;exitDy=0;entryX=0.5;entryY=1;entryDx=0;entryDy=0;" edge="1" parent="1" source="qjpJiVCOyiUKAkOlLTd5-25" target="qjpJiVCOyiUKAkOlLTd5-2">
          <mxGeometry relative="1" as="geometry">
            <mxPoint x="700" y="605" as="sourcePoint" />
            <mxPoint x="660" y="560" as="targetPoint" />
          </mxGeometry>
        </mxCell>
        <mxCell id="qjpJiVCOyiUKAkOlLTd5-45" value="" style="endArrow=none;html=1;rounded=0;exitX=0.5;exitY=0;exitDx=0;exitDy=0;entryX=0;entryY=1;entryDx=0;entryDy=0;" edge="1" parent="1" source="qjpJiVCOyiUKAkOlLTd5-26" target="qjpJiVCOyiUKAkOlLTd5-25">
          <mxGeometry relative="1" as="geometry">
            <mxPoint x="582" y="600" as="sourcePoint" />
            <mxPoint x="610" y="560" as="targetPoint" />
          </mxGeometry>
        </mxCell>
        <mxCell id="qjpJiVCOyiUKAkOlLTd5-46" value="" style="endArrow=none;html=1;rounded=0;exitX=0.5;exitY=0;exitDx=0;exitDy=0;entryX=0.5;entryY=1;entryDx=0;entryDy=0;" edge="1" parent="1" source="qjpJiVCOyiUKAkOlLTd5-27" target="qjpJiVCOyiUKAkOlLTd5-25">
          <mxGeometry relative="1" as="geometry">
            <mxPoint x="495" y="650" as="sourcePoint" />
            <mxPoint x="541" y="626" as="targetPoint" />
          </mxGeometry>
        </mxCell>
        <mxCell id="qjpJiVCOyiUKAkOlLTd5-47" value="" style="endArrow=none;html=1;rounded=0;exitX=0.5;exitY=0;exitDx=0;exitDy=0;entryX=1;entryY=1;entryDx=0;entryDy=0;" edge="1" parent="1" source="qjpJiVCOyiUKAkOlLTd5-28" target="qjpJiVCOyiUKAkOlLTd5-25">
          <mxGeometry relative="1" as="geometry">
            <mxPoint x="574" y="650" as="sourcePoint" />
            <mxPoint x="582" y="630" as="targetPoint" />
          </mxGeometry>
        </mxCell>
        <mxCell id="qjpJiVCOyiUKAkOlLTd5-48" value="" style="endArrow=none;html=1;rounded=0;exitX=0.5;exitY=0;exitDx=0;exitDy=0;entryX=0;entryY=1;entryDx=0;entryDy=0;" edge="1" parent="1" source="qjpJiVCOyiUKAkOlLTd5-38" target="qjpJiVCOyiUKAkOlLTd5-13">
          <mxGeometry relative="1" as="geometry">
            <mxPoint x="584" y="660" as="sourcePoint" />
            <mxPoint x="592" y="640" as="targetPoint" />
          </mxGeometry>
        </mxCell>
        <mxCell id="qjpJiVCOyiUKAkOlLTd5-49" value="" style="endArrow=none;html=1;rounded=0;exitX=1;exitY=0.5;exitDx=0;exitDy=0;entryX=0;entryY=0.25;entryDx=0;entryDy=0;" edge="1" parent="1" source="qjpJiVCOyiUKAkOlLTd5-35" target="qjpJiVCOyiUKAkOlLTd5-3">
          <mxGeometry relative="1" as="geometry">
            <mxPoint x="594" y="670" as="sourcePoint" />
            <mxPoint x="602" y="650" as="targetPoint" />
          </mxGeometry>
        </mxCell>
        <mxCell id="qjpJiVCOyiUKAkOlLTd5-50" value="" style="endArrow=none;html=1;rounded=0;exitX=1;exitY=0.5;exitDx=0;exitDy=0;entryX=0;entryY=1;entryDx=0;entryDy=0;" edge="1" parent="1" source="qjpJiVCOyiUKAkOlLTd5-36" target="qjpJiVCOyiUKAkOlLTd5-3">
          <mxGeometry relative="1" as="geometry">
            <mxPoint x="170" y="535" as="sourcePoint" />
            <mxPoint x="210" y="530" as="targetPoint" />
          </mxGeometry>
        </mxCell>
        <mxCell id="qjpJiVCOyiUKAkOlLTd5-51" value="" style="endArrow=none;html=1;rounded=0;exitX=1;exitY=0.5;exitDx=0;exitDy=0;entryX=0.25;entryY=1;entryDx=0;entryDy=0;" edge="1" parent="1" source="qjpJiVCOyiUKAkOlLTd5-37" target="qjpJiVCOyiUKAkOlLTd5-3">
          <mxGeometry relative="1" as="geometry">
            <mxPoint x="170" y="585" as="sourcePoint" />
            <mxPoint x="210" y="560" as="targetPoint" />
          </mxGeometry>
        </mxCell>
      </root>
    </mxGraphModel>
  </diagram>
  <diagram id="D3se6u5H0zmIRfiw8bsT" name="P치gina-3">
    <mxGraphModel dx="1026" dy="673" grid="1" gridSize="10" guides="1" tooltips="1" connect="1" arrows="1" fold="1" page="1" pageScale="1" pageWidth="827" pageHeight="1169" math="0" shadow="0">
      <root>
        <mxCell id="0" />
        <mxCell id="1" parent="0" />
        <mxCell id="EDU2lsnaAw3b_61vEgvi-1" value="&lt;h1 style=&quot;margin-top: 0px;&quot;&gt;Problema 2:&lt;/h1&gt;&lt;div&gt;&lt;span style=&quot;text-align: justify;&quot;&gt;Una tienda necesita gestionar las ventas, los clientes y los productos. Cada venta tiene un cliente asociaado y puede&amp;nbsp;&lt;/span&gt;&lt;span style=&quot;text-align: justify; background-color: initial;&quot;&gt;incluir varios productos.&lt;/span&gt;&lt;br&gt;&lt;/div&gt;" style="text;html=1;whiteSpace=wrap;overflow=hidden;rounded=0;" vertex="1" parent="1">
          <mxGeometry x="80" y="90" width="680" height="120" as="geometry" />
        </mxCell>
        <mxCell id="lCZq63XPQd8VQjPc7Sic-1" value="Tienda" style="whiteSpace=wrap;html=1;align=center;" vertex="1" parent="1">
          <mxGeometry x="380" y="310" width="100" height="40" as="geometry" />
        </mxCell>
        <mxCell id="Dy-ClPyY94PMGN2vXI_t-1" value="Cliente" style="whiteSpace=wrap;html=1;align=center;" vertex="1" parent="1">
          <mxGeometry x="160" y="440" width="100" height="40" as="geometry" />
        </mxCell>
        <mxCell id="Dy-ClPyY94PMGN2vXI_t-2" value="Producto" style="whiteSpace=wrap;html=1;align=center;" vertex="1" parent="1">
          <mxGeometry x="600" y="440" width="100" height="40" as="geometry" />
        </mxCell>
        <mxCell id="Dy-ClPyY94PMGN2vXI_t-3" value="Compra" style="shape=rhombus;perimeter=rhombusPerimeter;whiteSpace=wrap;html=1;align=center;" vertex="1" parent="1">
          <mxGeometry x="370" y="430" width="120" height="60" as="geometry" />
        </mxCell>
        <mxCell id="Dy-ClPyY94PMGN2vXI_t-4" value="gestiona" style="shape=rhombus;perimeter=rhombusPerimeter;whiteSpace=wrap;html=1;align=center;" vertex="1" parent="1">
          <mxGeometry x="150" y="300" width="120" height="60" as="geometry" />
        </mxCell>
        <mxCell id="Dy-ClPyY94PMGN2vXI_t-5" value="gestiona" style="shape=rhombus;perimeter=rhombusPerimeter;whiteSpace=wrap;html=1;align=center;" vertex="1" parent="1">
          <mxGeometry x="590" y="300" width="120" height="60" as="geometry" />
        </mxCell>
        <mxCell id="Dy-ClPyY94PMGN2vXI_t-6" value="" style="endArrow=none;html=1;rounded=0;exitX=1;exitY=0.5;exitDx=0;exitDy=0;entryX=0;entryY=0.5;entryDx=0;entryDy=0;" edge="1" parent="1" source="Dy-ClPyY94PMGN2vXI_t-1" target="Dy-ClPyY94PMGN2vXI_t-3">
          <mxGeometry relative="1" as="geometry">
            <mxPoint x="250" y="510" as="sourcePoint" />
            <mxPoint x="410" y="510" as="targetPoint" />
          </mxGeometry>
        </mxCell>
        <mxCell id="Dy-ClPyY94PMGN2vXI_t-7" value="" style="endArrow=none;html=1;rounded=0;exitX=1;exitY=0.5;exitDx=0;exitDy=0;entryX=0;entryY=0.5;entryDx=0;entryDy=0;" edge="1" parent="1" source="Dy-ClPyY94PMGN2vXI_t-3" target="Dy-ClPyY94PMGN2vXI_t-2">
          <mxGeometry relative="1" as="geometry">
            <mxPoint x="270" y="470" as="sourcePoint" />
            <mxPoint x="380" y="470" as="targetPoint" />
          </mxGeometry>
        </mxCell>
        <mxCell id="Dy-ClPyY94PMGN2vXI_t-8" value="" style="endArrow=none;html=1;rounded=0;exitX=0.5;exitY=1;exitDx=0;exitDy=0;entryX=0.5;entryY=0;entryDx=0;entryDy=0;" edge="1" parent="1" source="Dy-ClPyY94PMGN2vXI_t-5" target="Dy-ClPyY94PMGN2vXI_t-2">
          <mxGeometry relative="1" as="geometry">
            <mxPoint x="500" y="470" as="sourcePoint" />
            <mxPoint x="610" y="470" as="targetPoint" />
          </mxGeometry>
        </mxCell>
        <mxCell id="Dy-ClPyY94PMGN2vXI_t-9" value="" style="endArrow=none;html=1;rounded=0;exitX=0.5;exitY=1;exitDx=0;exitDy=0;entryX=0.5;entryY=0;entryDx=0;entryDy=0;" edge="1" parent="1" source="Dy-ClPyY94PMGN2vXI_t-4" target="Dy-ClPyY94PMGN2vXI_t-1">
          <mxGeometry relative="1" as="geometry">
            <mxPoint x="240" y="360" as="sourcePoint" />
            <mxPoint x="240" y="440" as="targetPoint" />
          </mxGeometry>
        </mxCell>
        <mxCell id="Dy-ClPyY94PMGN2vXI_t-10" value="" style="endArrow=none;html=1;rounded=0;exitX=0;exitY=0.5;exitDx=0;exitDy=0;entryX=1;entryY=0.5;entryDx=0;entryDy=0;" edge="1" parent="1" source="lCZq63XPQd8VQjPc7Sic-1" target="Dy-ClPyY94PMGN2vXI_t-4">
          <mxGeometry relative="1" as="geometry">
            <mxPoint x="220" y="370" as="sourcePoint" />
            <mxPoint x="220" y="450" as="targetPoint" />
          </mxGeometry>
        </mxCell>
        <mxCell id="Dy-ClPyY94PMGN2vXI_t-11" value="" style="endArrow=none;html=1;rounded=0;exitX=1;exitY=0.5;exitDx=0;exitDy=0;entryX=0;entryY=0.5;entryDx=0;entryDy=0;" edge="1" parent="1" source="lCZq63XPQd8VQjPc7Sic-1" target="Dy-ClPyY94PMGN2vXI_t-5">
          <mxGeometry relative="1" as="geometry">
            <mxPoint x="390" y="340" as="sourcePoint" />
            <mxPoint x="280" y="340" as="targetPoint" />
          </mxGeometry>
        </mxCell>
        <mxCell id="Dy-ClPyY94PMGN2vXI_t-12" value="(1,n)" style="text;html=1;align=center;verticalAlign=middle;resizable=0;points=[];autosize=1;strokeColor=none;fillColor=none;" vertex="1" parent="1">
          <mxGeometry x="650" y="410" width="50" height="30" as="geometry" />
        </mxCell>
        <mxCell id="Dy-ClPyY94PMGN2vXI_t-13" value="(1,1)" style="text;html=1;align=center;verticalAlign=middle;resizable=0;points=[];autosize=1;strokeColor=none;fillColor=none;" vertex="1" parent="1">
          <mxGeometry x="480" y="300" width="50" height="30" as="geometry" />
        </mxCell>
        <mxCell id="Dy-ClPyY94PMGN2vXI_t-14" value="(1,n)" style="text;html=1;align=center;verticalAlign=middle;resizable=0;points=[];autosize=1;strokeColor=none;fillColor=none;" vertex="1" parent="1">
          <mxGeometry x="210" y="410" width="50" height="30" as="geometry" />
        </mxCell>
        <mxCell id="Dy-ClPyY94PMGN2vXI_t-15" value="(1,n)" style="text;html=1;align=center;verticalAlign=middle;resizable=0;points=[];autosize=1;strokeColor=none;fillColor=none;" vertex="1" parent="1">
          <mxGeometry x="330" y="300" width="50" height="30" as="geometry" />
        </mxCell>
        <mxCell id="Dy-ClPyY94PMGN2vXI_t-16" value="(1,n)" style="text;html=1;align=center;verticalAlign=middle;resizable=0;points=[];autosize=1;strokeColor=none;fillColor=none;" vertex="1" parent="1">
          <mxGeometry x="550" y="430" width="50" height="30" as="geometry" />
        </mxCell>
        <mxCell id="Dy-ClPyY94PMGN2vXI_t-17" value="(1,n)" style="text;html=1;align=center;verticalAlign=middle;resizable=0;points=[];autosize=1;strokeColor=none;fillColor=none;" vertex="1" parent="1">
          <mxGeometry x="265" y="438" width="50" height="30" as="geometry" />
        </mxCell>
      </root>
    </mxGraphModel>
  </diagram>
</mxfile>
